<?xml version="1.0" encoding="UTF-8" standalone="no"?>
<!DOCTYPE svg PUBLIC "-//W3C//DTD SVG 1.1//EN"
 "http://www.w3.org/Graphics/SVG/1.1/DTD/svg11.dtd">
<!-- Generated by graphviz version 2.47.0 (20210316.0004)
 -->
<!-- Title: dependencies Pages: 1 -->
<svg width="1544pt" height="287pt"
 viewBox="0.00 0.00 1544.00 287.00" xmlns="http://www.w3.org/2000/svg" xmlns:xlink="http://www.w3.org/1999/xlink">
<g id="graph0" class="graph" transform="scale(1 1) rotate(0) translate(4 283)">
<title>dependencies</title>
<polygon fill="white" stroke="transparent" points="-4,4 -4,-283 1540,-283 1540,4 -4,4"/>
<text text-anchor="start" x="747.01" y="-42.4" font-family="Times-12" font-weight="bold" font-size="14.00">Legend</text>
<polygon fill="#ffffb3" stroke="transparent" points="534,-10 534,-30 554,-30 554,-10 534,-10"/>
<text text-anchor="start" x="557.63" y="-15.4" font-family="Times-12" font-size="14.00"> &#160;Declarations</text>
<polygon fill="#8dd3c7" stroke="transparent" points="647,-10 647,-30 667,-30 667,-10 647,-10"/>
<text text-anchor="start" x="670.73" y="-15.4" font-family="Times-12" font-size="14.00"> &#160;Module</text>
<polygon fill="#80b1d3" stroke="transparent" points="733,-10 733,-30 753,-30 753,-10 733,-10"/>
<text text-anchor="start" x="756.78" y="-15.4" font-family="Times-12" font-size="14.00"> &#160;Bootstrap</text>
<polygon fill="#fdb462" stroke="transparent" points="830,-10 830,-30 850,-30 850,-10 830,-10"/>
<text text-anchor="start" x="853.67" y="-15.4" font-family="Times-12" font-size="14.00"> &#160;Providers</text>
<polygon fill="#fb8072" stroke="transparent" points="926,-10 926,-30 946,-30 946,-10 926,-10"/>
<text text-anchor="start" x="949.73" y="-15.4" font-family="Times-12" font-size="14.00"> &#160;Exports</text>
<g id="clust1" class="cluster">
<title>cluster_AppModule</title>
<polygon fill="none" stroke="black" stroke-dasharray="1,5" points="560,-70 560,-271 1246,-271 1246,-70 560,-70"/>
</g>
<g id="clust3" class="cluster">
<title>cluster_AppModule_imports</title>
<polygon fill="none" stroke="black" points="1122,-78 1122,-206 1230,-206 1230,-78 1122,-78"/>
</g>
<g id="clust6" class="cluster">
<title>cluster_AppModule_providers</title>
<polygon fill="none" stroke="black" points="568,-154 568,-206 1114,-206 1114,-154 568,-154"/>
</g>
<g id="clust7" class="cluster">
<title>cluster_AuthModule</title>
<polygon fill="none" stroke="black" stroke-dasharray="1,5" points="8,-70 8,-138 552,-138 552,-70 8,-70"/>
</g>
<g id="clust10" class="cluster">
<title>cluster_AuthModule_exports</title>
<polygon fill="none" stroke="black" points="438,-78 438,-130 544,-130 544,-78 438,-78"/>
</g>
<g id="clust12" class="cluster">
<title>cluster_AuthModule_providers</title>
<polygon fill="none" stroke="black" points="16,-78 16,-130 430,-130 430,-78 16,-78"/>
</g>
<g id="clust13" class="cluster">
<title>cluster_UsersModule</title>
<polygon fill="none" stroke="black" stroke-dasharray="1,5" points="1254,-146 1254,-214 1528,-214 1528,-146 1254,-146"/>
</g>
<g id="clust16" class="cluster">
<title>cluster_UsersModule_exports</title>
<polygon fill="none" stroke="black" points="1410,-154 1410,-206 1520,-206 1520,-154 1410,-154"/>
</g>
<g id="clust18" class="cluster">
<title>cluster_UsersModule_providers</title>
<polygon fill="none" stroke="black" points="1262,-154 1262,-206 1402,-206 1402,-154 1262,-154"/>
</g>
<!-- AuthModule -->
<g id="node1" class="node">
<title>AuthModule</title>
<polygon fill="#8dd3c7" stroke="black" points="1217.55,-198 1214.55,-202 1193.55,-202 1190.55,-198 1130.45,-198 1130.45,-162 1217.55,-162 1217.55,-198"/>
<text text-anchor="middle" x="1174" y="-175.8" font-family="Times,serif" font-size="14.00">AuthModule</text>
</g>
<!-- AppModule -->
<g id="node3" class="node">
<title>AppModule</title>
<polygon fill="#8dd3c7" stroke="black" points="1024.66,-263 1021.66,-267 1000.66,-267 997.66,-263 941.34,-263 941.34,-227 1024.66,-227 1024.66,-263"/>
<text text-anchor="middle" x="983" y="-240.8" font-family="Times,serif" font-size="14.00">AppModule</text>
</g>
<!-- AuthModule&#45;&gt;AppModule -->
<g id="edge1" class="edge">
<title>AuthModule&#45;&gt;AppModule</title>
<path fill="none" stroke="black" d="M1174,-198.11C1174,-217.34 1174,-245 1174,-245 1174,-245 1034.92,-245 1034.92,-245"/>
<polygon fill="black" stroke="black" points="1034.92,-241.5 1024.92,-245 1034.92,-248.5 1034.92,-241.5"/>
</g>
<!-- AuthService  -->
<g id="node8" class="node">
<title>AuthService </title>
<polygon fill="#fb8072" stroke="black" points="535.98,-122 446.02,-122 446.02,-86 535.98,-86 535.98,-122"/>
<text text-anchor="middle" x="491" y="-99.8" font-family="Times,serif" font-size="14.00">AuthService </text>
</g>
<!-- AuthModule&#45;&gt;AuthService  -->
<g id="edge8" class="edge">
<title>AuthModule&#45;&gt;AuthService </title>
<path fill="none" stroke="black" stroke-dasharray="5,2" d="M1130.37,-180C1123.13,-180 1117.92,-180 1117.92,-180 1117.92,-180 1117.92,-98 1117.92,-98 1117.92,-98 545.84,-98 545.84,-98"/>
<polygon fill="black" stroke="black" points="545.84,-94.5 535.84,-98 545.84,-101.5 545.84,-94.5"/>
</g>
<!-- UsersModule -->
<g id="node2" class="node">
<title>UsersModule</title>
<polygon fill="#8dd3c7" stroke="black" points="1221.92,-122 1218.92,-126 1197.92,-126 1194.92,-122 1130.08,-122 1130.08,-86 1221.92,-86 1221.92,-122"/>
<text text-anchor="middle" x="1176" y="-99.8" font-family="Times,serif" font-size="14.00">UsersModule</text>
</g>
<!-- UsersModule&#45;&gt;AuthModule -->
<g id="edge7" class="edge">
<title>UsersModule&#45;&gt;AuthModule</title>
<path fill="none" stroke="black" d="M1200.28,-122.01C1200.28,-122.01 1200.28,-151.85 1200.28,-151.85"/>
<polygon fill="black" stroke="black" points="1196.78,-151.85 1200.28,-161.85 1203.78,-151.85 1196.78,-151.85"/>
</g>
<!-- UsersModule&#45;&gt;AppModule -->
<g id="edge2" class="edge">
<title>UsersModule&#45;&gt;AppModule</title>
<path fill="none" stroke="black" d="M1129.89,-110C1072.94,-110 983.5,-110 983.5,-110 983.5,-110 983.5,-216.79 983.5,-216.79"/>
<polygon fill="black" stroke="black" points="980,-216.79 983.5,-226.79 987,-216.79 980,-216.79"/>
</g>
<!-- UsersService  -->
<g id="node12" class="node">
<title>UsersService </title>
<polygon fill="#fb8072" stroke="black" points="1511.85,-198 1418.15,-198 1418.15,-162 1511.85,-162 1511.85,-198"/>
<text text-anchor="middle" x="1465" y="-175.8" font-family="Times,serif" font-size="14.00">UsersService </text>
</g>
<!-- UsersModule&#45;&gt;UsersService  -->
<g id="edge12" class="edge">
<title>UsersModule&#45;&gt;UsersService </title>
<path fill="none" stroke="black" stroke-dasharray="5,2" d="M1221.79,-98C1303.28,-98 1465,-98 1465,-98 1465,-98 1465,-151.8 1465,-151.8"/>
<polygon fill="black" stroke="black" points="1461.5,-151.8 1465,-161.8 1468.5,-151.8 1461.5,-151.8"/>
</g>
<!-- AppService -->
<g id="node4" class="node">
<title>AppService</title>
<ellipse fill="#fdb462" stroke="black" cx="1049" cy="-180" rx="56.74" ry="18"/>
<text text-anchor="middle" x="1049" y="-175.8" font-family="Times,serif" font-size="14.00">AppService</text>
</g>
<!-- AppService&#45;&gt;AppModule -->
<g id="edge3" class="edge">
<title>AppService&#45;&gt;AppModule</title>
<path fill="none" stroke="black" d="M1008.6,-192.84C1008.6,-192.84 1008.6,-216.52 1008.6,-216.52"/>
<polygon fill="black" stroke="black" points="1005.1,-216.52 1008.6,-226.52 1012.1,-216.52 1005.1,-216.52"/>
</g>
<!-- PostService -->
<g id="node5" class="node">
<title>PostService</title>
<ellipse fill="#fdb462" stroke="black" cx="918" cy="-180" rx="56.76" ry="18"/>
<text text-anchor="middle" x="918" y="-175.8" font-family="Times,serif" font-size="14.00">PostService</text>
</g>
<!-- PostService&#45;&gt;AppModule -->
<g id="edge4" class="edge">
<title>PostService&#45;&gt;AppModule</title>
<path fill="none" stroke="black" d="M957.9,-192.84C957.9,-192.84 957.9,-216.52 957.9,-216.52"/>
<polygon fill="black" stroke="black" points="954.4,-216.52 957.9,-226.52 961.4,-216.52 954.4,-216.52"/>
</g>
<!-- PrismaService -->
<g id="node6" class="node">
<title>PrismaService</title>
<ellipse fill="#fdb462" stroke="black" cx="777" cy="-180" rx="66.63" ry="18"/>
<text text-anchor="middle" x="777" y="-175.8" font-family="Times,serif" font-size="14.00">PrismaService</text>
</g>
<!-- PrismaService&#45;&gt;AppModule -->
<g id="edge5" class="edge">
<title>PrismaService&#45;&gt;AppModule</title>
<path fill="none" stroke="black" d="M777,-198.02C777,-215.37 777,-239 777,-239 777,-239 931.31,-239 931.31,-239"/>
<polygon fill="black" stroke="black" points="931.31,-242.5 941.31,-239 931.31,-235.5 931.31,-242.5"/>
</g>
<!-- UserService -->
<g id="node7" class="node">
<title>UserService</title>
<ellipse fill="#fdb462" stroke="black" cx="634" cy="-180" rx="58.44" ry="18"/>
<text text-anchor="middle" x="634" y="-175.8" font-family="Times,serif" font-size="14.00">UserService</text>
</g>
<!-- UserService&#45;&gt;AppModule -->
<g id="edge6" class="edge">
<title>UserService&#45;&gt;AppModule</title>
<path fill="none" stroke="black" d="M634,-198.28C634,-219.32 634,-251 634,-251 634,-251 931.25,-251 931.25,-251"/>
<polygon fill="black" stroke="black" points="931.25,-254.5 941.25,-251 931.25,-247.5 931.25,-254.5"/>
</g>
<!-- AuthService -->
<g id="node9" class="node">
<title>AuthService</title>
<ellipse fill="#fdb462" stroke="black" cx="363" cy="-104" rx="59.11" ry="18"/>
<text text-anchor="middle" x="363" y="-99.8" font-family="Times,serif" font-size="14.00">AuthService</text>
</g>
<!-- AuthService&#45;&gt;AuthModule -->
<g id="edge9" class="edge">
<title>AuthService&#45;&gt;AuthModule</title>
<path fill="none" stroke="black" d="M363,-122.21C363,-127.55 363,-132 363,-132 363,-132 1182.78,-132 1182.78,-132 1182.78,-132 1182.78,-151.85 1182.78,-151.85"/>
<polygon fill="black" stroke="black" points="1179.28,-151.85 1182.78,-161.85 1186.28,-151.85 1179.28,-151.85"/>
</g>
<!-- JwtStrategy -->
<g id="node10" class="node">
<title>JwtStrategy</title>
<ellipse fill="#fdb462" stroke="black" cx="229" cy="-104" rx="56.76" ry="18"/>
<text text-anchor="middle" x="229" y="-99.8" font-family="Times,serif" font-size="14.00">JwtStrategy</text>
</g>
<!-- JwtStrategy&#45;&gt;AuthModule -->
<g id="edge10" class="edge">
<title>JwtStrategy&#45;&gt;AuthModule</title>
<path fill="none" stroke="black" d="M229,-122.11C229,-131.9 229,-142 229,-142 229,-142 1165.28,-142 1165.28,-142 1165.28,-142 1165.28,-151.89 1165.28,-151.89"/>
<polygon fill="black" stroke="black" points="1161.78,-151.89 1165.28,-161.89 1168.78,-151.89 1161.78,-151.89"/>
</g>
<!-- LocalStrategy -->
<g id="node11" class="node">
<title>LocalStrategy</title>
<ellipse fill="#fdb462" stroke="black" cx="89" cy="-104" rx="65.41" ry="18"/>
<text text-anchor="middle" x="89" y="-99.8" font-family="Times,serif" font-size="14.00">LocalStrategy</text>
</g>
<!-- LocalStrategy&#45;&gt;AuthModule -->
<g id="edge11" class="edge">
<title>LocalStrategy&#45;&gt;AuthModule</title>
<path fill="none" stroke="black" d="M89,-122.15C89,-135.74 89,-152 89,-152 89,-152 1147.79,-152 1147.79,-152 1147.79,-152 1147.79,-152.98 1147.79,-152.98"/>
<polygon fill="black" stroke="black" points="1144.29,-151.79 1147.79,-161.79 1151.29,-151.79 1144.29,-151.79"/>
</g>
<!-- UsersService -->
<g id="node13" class="node">
<title>UsersService</title>
<ellipse fill="#fdb462" stroke="black" cx="1332" cy="-180" rx="61.95" ry="18"/>
<text text-anchor="middle" x="1332" y="-175.8" font-family="Times,serif" font-size="14.00">UsersService</text>
</g>
<!-- UsersService&#45;&gt;UsersModule -->
<g id="edge13" class="edge">
<title>UsersService&#45;&gt;UsersModule</title>
<path fill="none" stroke="black" d="M1332,-161.97C1332,-141.23 1332,-110 1332,-110 1332,-110 1231.96,-110 1231.96,-110"/>
<polygon fill="black" stroke="black" points="1231.96,-106.5 1221.96,-110 1231.96,-113.5 1231.96,-106.5"/>
</g>
</g>
</svg>
